<?xml version="1.0" encoding="UTF-8" standalone="no"?>
<svg viewBox="0 0 24.0 24.0">
  <path d="M12,12m-10,0a10,10 0,1 1,20 0a10,10 0,1 1,-20 0" fill="#005FFF"/>
  <path d="M6.6,14.5h10.8v1.5h-10.8z" fill="#FF000000"/>
  <path d="M15.5,9.5m-1.5,0a1.5,1.5 0,1 1,3 0a1.5,1.5 0,1 1,-3 0" fill="#FF000000"/>
  <path d="M8.5,9.5m-1.5,0a1.5,1.5 0,1 1,3 0a1.5,1.5 0,1 1,-3 0" fill="#FF000000"/>
  <path d="M11.99,2C6.47,2 2,6.48 2,12s4.47,10 9.99,10C17.52,22 22,17.52 22,12S17.52,2 11.99,2zM12,20c-4.42,0 -8,-3.58 -8,-8s3.58,-8 8,-8 8,3.58 8,8 -3.58,8 -8,8z" fill="#FF000000"/>
  <path d="M13,14.64L14.06,15.7l1.06,-1.06L16.18,15.7l1.06,-1.06l-2.12,-2.12zM8.88,14.64L9.94,15.7L11,14.64L8.88,12.52L6.76,14.64L7.82,15.7z" fill="#FF000000"/>
</svg>
